ISO-10303-21;
HEADER;
/* Generated by software containing ST-Developer
 * from STEP Tools, Inc. (www.steptools.com) 
 */

FILE_DESCRIPTION(
/* description */ (''),
/* implementation_level */ '2;1');

FILE_NAME(
/* name */ 'BOTTOM.step',
/* time_stamp */ '2025-07-08T20:16:06-04:00',
/* author */ (''),
/* organization */ (''),
/* preprocessor_version */ 'ST-DEVELOPER v20.1',
/* originating_system */ 'Autodesk Translation Framework v14.10.0.0',
/* authorisation */ '');

FILE_SCHEMA (('AUTOMOTIVE_DESIGN { 1 0 10303 214 3 1 1 }'));
ENDSEC;

DATA;
#10=MECHANICAL_DESIGN_GEOMETRIC_PRESENTATION_REPRESENTATION('',(#13),#947);
#11=SHAPE_REPRESENTATION_RELATIONSHIP('SRR','None',#954,#12);
#12=ADVANCED_BREP_SHAPE_REPRESENTATION('',(#14),#946);
#13=STYLED_ITEM('',(#963),#14);
#14=MANIFOLD_SOLID_BREP('Body1',#551);
#15=CYLINDRICAL_SURFACE('',#579,1.);
#16=CYLINDRICAL_SURFACE('',#585,1.);
#17=CYLINDRICAL_SURFACE('',#591,1.);
#18=CYLINDRICAL_SURFACE('',#597,1.);
#19=CYLINDRICAL_SURFACE('',#599,5.);
#20=CYLINDRICAL_SURFACE('',#601,5.);
#21=CYLINDRICAL_SURFACE('',#607,5.);
#22=CYLINDRICAL_SURFACE('',#609,5.);
#23=CYLINDRICAL_SURFACE('',#615,3.);
#24=CYLINDRICAL_SURFACE('',#616,3.);
#25=CYLINDRICAL_SURFACE('',#617,3.);
#26=CYLINDRICAL_SURFACE('',#618,3.);
#27=TOROIDAL_SURFACE('',#574,4.,1.);
#28=TOROIDAL_SURFACE('',#581,4.,1.);
#29=TOROIDAL_SURFACE('',#587,4.,1.);
#30=TOROIDAL_SURFACE('',#593,4.,1.);
#31=FACE_BOUND('',#70,.T.);
#32=FACE_BOUND('',#71,.T.);
#33=FACE_BOUND('',#72,.T.);
#34=FACE_BOUND('',#73,.T.);
#35=FACE_BOUND('',#87,.T.);
#36=FACE_BOUND('',#88,.T.);
#37=FACE_BOUND('',#89,.T.);
#38=FACE_BOUND('',#90,.T.);
#39=FACE_OUTER_BOUND('',#69,.T.);
#40=FACE_OUTER_BOUND('',#74,.T.);
#41=FACE_OUTER_BOUND('',#75,.T.);
#42=FACE_OUTER_BOUND('',#76,.T.);
#43=FACE_OUTER_BOUND('',#77,.T.);
#44=FACE_OUTER_BOUND('',#78,.T.);
#45=FACE_OUTER_BOUND('',#79,.T.);
#46=FACE_OUTER_BOUND('',#80,.T.);
#47=FACE_OUTER_BOUND('',#81,.T.);
#48=FACE_OUTER_BOUND('',#82,.T.);
#49=FACE_OUTER_BOUND('',#83,.T.);
#50=FACE_OUTER_BOUND('',#84,.T.);
#51=FACE_OUTER_BOUND('',#85,.T.);
#52=FACE_OUTER_BOUND('',#86,.T.);
#53=FACE_OUTER_BOUND('',#91,.T.);
#54=FACE_OUTER_BOUND('',#92,.T.);
#55=FACE_OUTER_BOUND('',#93,.T.);
#56=FACE_OUTER_BOUND('',#94,.T.);
#57=FACE_OUTER_BOUND('',#95,.T.);
#58=FACE_OUTER_BOUND('',#96,.T.);
#59=FACE_OUTER_BOUND('',#97,.T.);
#60=FACE_OUTER_BOUND('',#98,.T.);
#61=FACE_OUTER_BOUND('',#99,.T.);
#62=FACE_OUTER_BOUND('',#100,.T.);
#63=FACE_OUTER_BOUND('',#101,.T.);
#64=FACE_OUTER_BOUND('',#102,.T.);
#65=FACE_OUTER_BOUND('',#103,.T.);
#66=FACE_OUTER_BOUND('',#104,.T.);
#67=FACE_OUTER_BOUND('',#105,.T.);
#68=FACE_OUTER_BOUND('',#106,.T.);
#69=EDGE_LOOP('',(#355,#356,#357,#358,#359,#360,#361,#362,#363,#364,#365,
#366,#367,#368,#369,#370));
#70=EDGE_LOOP('',(#371));
#71=EDGE_LOOP('',(#372));
#72=EDGE_LOOP('',(#373));
#73=EDGE_LOOP('',(#374));
#74=EDGE_LOOP('',(#375,#376,#377,#378));
#75=EDGE_LOOP('',(#379,#380,#381,#382));
#76=EDGE_LOOP('',(#383,#384,#385,#386));
#77=EDGE_LOOP('',(#387,#388,#389,#390));
#78=EDGE_LOOP('',(#391,#392,#393,#394));
#79=EDGE_LOOP('',(#395,#396,#397,#398));
#80=EDGE_LOOP('',(#399,#400,#401,#402));
#81=EDGE_LOOP('',(#403,#404,#405,#406));
#82=EDGE_LOOP('',(#407,#408,#409,#410));
#83=EDGE_LOOP('',(#411,#412,#413,#414));
#84=EDGE_LOOP('',(#415,#416,#417,#418,#419,#420,#421,#422));
#85=EDGE_LOOP('',(#423,#424,#425,#426));
#86=EDGE_LOOP('',(#427,#428,#429,#430,#431,#432,#433,#434));
#87=EDGE_LOOP('',(#435));
#88=EDGE_LOOP('',(#436));
#89=EDGE_LOOP('',(#437));
#90=EDGE_LOOP('',(#438));
#91=EDGE_LOOP('',(#439,#440,#441,#442));
#92=EDGE_LOOP('',(#443,#444,#445,#446));
#93=EDGE_LOOP('',(#447,#448,#449,#450));
#94=EDGE_LOOP('',(#451,#452,#453,#454));
#95=EDGE_LOOP('',(#455,#456,#457,#458));
#96=EDGE_LOOP('',(#459,#460,#461,#462));
#97=EDGE_LOOP('',(#463,#464,#465,#466));
#98=EDGE_LOOP('',(#467,#468,#469,#470));
#99=EDGE_LOOP('',(#471,#472,#473,#474));
#100=EDGE_LOOP('',(#475,#476,#477,#478));
#101=EDGE_LOOP('',(#479,#480,#481,#482));
#102=EDGE_LOOP('',(#483,#484,#485,#486));
#103=EDGE_LOOP('',(#487,#488,#489,#490));
#104=EDGE_LOOP('',(#491,#492,#493,#494));
#105=EDGE_LOOP('',(#495,#496,#497,#498,#499,#500,#501,#502));
#106=EDGE_LOOP('',(#503,#504,#505,#506));
#107=LINE('',#795,#155);
#108=LINE('',#799,#156);
#109=LINE('',#803,#157);
#110=LINE('',#805,#158);
#111=LINE('',#807,#159);
#112=LINE('',#809,#160);
#113=LINE('',#811,#161);
#114=LINE('',#813,#162);
#115=LINE('',#815,#163);
#116=LINE('',#817,#164);
#117=LINE('',#819,#165);
#118=LINE('',#822,#166);
#119=LINE('',#844,#167);
#120=LINE('',#845,#168);
#121=LINE('',#856,#169);
#122=LINE('',#857,#170);
#123=LINE('',#868,#171);
#124=LINE('',#869,#172);
#125=LINE('',#877,#173);
#126=LINE('',#878,#174);
#127=LINE('',#880,#175);
#128=LINE('',#881,#176);
#129=LINE('',#883,#177);
#130=LINE('',#885,#178);
#131=LINE('',#887,#179);
#132=LINE('',#889,#180);
#133=LINE('',#890,#181);
#134=LINE('',#892,#182);
#135=LINE('',#903,#183);
#136=LINE('',#904,#184);
#137=LINE('',#906,#185);
#138=LINE('',#911,#186);
#139=LINE('',#913,#187);
#140=LINE('',#915,#188);
#141=LINE('',#916,#189);
#142=LINE('',#918,#190);
#143=LINE('',#919,#191);
#144=LINE('',#921,#192);
#145=LINE('',#925,#193);
#146=LINE('',#926,#194);
#147=LINE('',#927,#195);
#148=LINE('',#929,#196);
#149=LINE('',#931,#197);
#150=LINE('',#933,#198);
#151=LINE('',#935,#199);
#152=LINE('',#937,#200);
#153=LINE('',#940,#201);
#154=LINE('',#942,#202);
#155=VECTOR('',#629,10.);
#156=VECTOR('',#632,10.);
#157=VECTOR('',#635,10.);
#158=VECTOR('',#636,10.);
#159=VECTOR('',#637,10.);
#160=VECTOR('',#638,10.);
#161=VECTOR('',#639,10.);
#162=VECTOR('',#640,10.);
#163=VECTOR('',#641,10.);
#164=VECTOR('',#642,10.);
#165=VECTOR('',#643,10.);
#166=VECTOR('',#646,10.);
#167=VECTOR('',#669,10.);
#168=VECTOR('',#670,10.);
#169=VECTOR('',#683,10.);
#170=VECTOR('',#684,10.);
#171=VECTOR('',#697,10.);
#172=VECTOR('',#698,10.);
#173=VECTOR('',#709,10.);
#174=VECTOR('',#710,10.);
#175=VECTOR('',#713,10.);
#176=VECTOR('',#714,10.);
#177=VECTOR('',#717,10.);
#178=VECTOR('',#720,10.);
#179=VECTOR('',#721,10.);
#180=VECTOR('',#722,10.);
#181=VECTOR('',#723,10.);
#182=VECTOR('',#726,10.);
#183=VECTOR('',#739,10.);
#184=VECTOR('',#740,10.);
#185=VECTOR('',#743,10.);
#186=VECTOR('',#748,10.);
#187=VECTOR('',#749,10.);
#188=VECTOR('',#750,10.);
#189=VECTOR('',#751,10.);
#190=VECTOR('',#754,10.);
#191=VECTOR('',#755,10.);
#192=VECTOR('',#758,10.);
#193=VECTOR('',#761,10.);
#194=VECTOR('',#762,10.);
#195=VECTOR('',#763,10.);
#196=VECTOR('',#766,10.);
#197=VECTOR('',#769,3.);
#198=VECTOR('',#772,3.);
#199=VECTOR('',#775,3.);
#200=VECTOR('',#778,3.);
#201=VECTOR('',#783,10.);
#202=VECTOR('',#786,10.);
#203=CIRCLE('',#566,5.);
#204=CIRCLE('',#567,5.);
#205=CIRCLE('',#568,5.);
#206=CIRCLE('',#569,5.);
#207=CIRCLE('',#570,3.);
#208=CIRCLE('',#571,3.);
#209=CIRCLE('',#572,3.);
#210=CIRCLE('',#573,3.);
#211=CIRCLE('',#575,0.999999999999996);
#212=CIRCLE('',#576,4.);
#213=CIRCLE('',#577,1.);
#214=CIRCLE('',#578,5.);
#215=CIRCLE('',#580,1.);
#216=CIRCLE('',#582,1.);
#217=CIRCLE('',#583,5.);
#218=CIRCLE('',#584,4.);
#219=CIRCLE('',#586,1.);
#220=CIRCLE('',#588,1.);
#221=CIRCLE('',#589,5.);
#222=CIRCLE('',#590,4.);
#223=CIRCLE('',#592,1.);
#224=CIRCLE('',#594,1.);
#225=CIRCLE('',#595,5.);
#226=CIRCLE('',#596,4.);
#227=CIRCLE('',#603,3.);
#228=CIRCLE('',#604,3.);
#229=CIRCLE('',#605,3.);
#230=CIRCLE('',#606,3.);
#231=VERTEX_POINT('',#791);
#232=VERTEX_POINT('',#792);
#233=VERTEX_POINT('',#794);
#234=VERTEX_POINT('',#796);
#235=VERTEX_POINT('',#798);
#236=VERTEX_POINT('',#800);
#237=VERTEX_POINT('',#802);
#238=VERTEX_POINT('',#804);
#239=VERTEX_POINT('',#806);
#240=VERTEX_POINT('',#808);
#241=VERTEX_POINT('',#810);
#242=VERTEX_POINT('',#812);
#243=VERTEX_POINT('',#814);
#244=VERTEX_POINT('',#816);
#245=VERTEX_POINT('',#818);
#246=VERTEX_POINT('',#820);
#247=VERTEX_POINT('',#823);
#248=VERTEX_POINT('',#825);
#249=VERTEX_POINT('',#827);
#250=VERTEX_POINT('',#829);
#251=VERTEX_POINT('',#832);
#252=VERTEX_POINT('',#833);
#253=VERTEX_POINT('',#835);
#254=VERTEX_POINT('',#837);
#255=VERTEX_POINT('',#841);
#256=VERTEX_POINT('',#842);
#257=VERTEX_POINT('',#847);
#258=VERTEX_POINT('',#848);
#259=VERTEX_POINT('',#853);
#260=VERTEX_POINT('',#854);
#261=VERTEX_POINT('',#859);
#262=VERTEX_POINT('',#860);
#263=VERTEX_POINT('',#865);
#264=VERTEX_POINT('',#866);
#265=VERTEX_POINT('',#871);
#266=VERTEX_POINT('',#872);
#267=VERTEX_POINT('',#886);
#268=VERTEX_POINT('',#888);
#269=VERTEX_POINT('',#894);
#270=VERTEX_POINT('',#896);
#271=VERTEX_POINT('',#898);
#272=VERTEX_POINT('',#900);
#273=VERTEX_POINT('',#909);
#274=VERTEX_POINT('',#910);
#275=VERTEX_POINT('',#912);
#276=VERTEX_POINT('',#914);
#277=VERTEX_POINT('',#923);
#278=VERTEX_POINT('',#924);
#279=EDGE_CURVE('',#231,#232,#203,.T.);
#280=EDGE_CURVE('',#232,#233,#107,.T.);
#281=EDGE_CURVE('',#233,#234,#204,.T.);
#282=EDGE_CURVE('',#234,#235,#108,.T.);
#283=EDGE_CURVE('',#235,#236,#205,.T.);
#284=EDGE_CURVE('',#236,#237,#109,.T.);
#285=EDGE_CURVE('',#237,#238,#110,.T.);
#286=EDGE_CURVE('',#238,#239,#111,.T.);
#287=EDGE_CURVE('',#239,#240,#112,.T.);
#288=EDGE_CURVE('',#240,#241,#113,.T.);
#289=EDGE_CURVE('',#241,#242,#114,.T.);
#290=EDGE_CURVE('',#242,#243,#115,.T.);
#291=EDGE_CURVE('',#243,#244,#116,.T.);
#292=EDGE_CURVE('',#244,#245,#117,.T.);
#293=EDGE_CURVE('',#245,#246,#206,.T.);
#294=EDGE_CURVE('',#246,#231,#118,.T.);
#295=EDGE_CURVE('',#247,#247,#207,.T.);
#296=EDGE_CURVE('',#248,#248,#208,.T.);
#297=EDGE_CURVE('',#249,#249,#209,.T.);
#298=EDGE_CURVE('',#250,#250,#210,.T.);
#299=EDGE_CURVE('',#251,#252,#211,.T.);
#300=EDGE_CURVE('',#252,#253,#212,.T.);
#301=EDGE_CURVE('',#253,#254,#213,.T.);
#302=EDGE_CURVE('',#254,#251,#214,.T.);
#303=EDGE_CURVE('',#255,#256,#215,.T.);
#304=EDGE_CURVE('',#256,#254,#119,.T.);
#305=EDGE_CURVE('',#253,#255,#120,.T.);
#306=EDGE_CURVE('',#257,#258,#216,.T.);
#307=EDGE_CURVE('',#258,#256,#217,.T.);
#308=EDGE_CURVE('',#255,#257,#218,.T.);
#309=EDGE_CURVE('',#259,#260,#219,.T.);
#310=EDGE_CURVE('',#260,#258,#121,.T.);
#311=EDGE_CURVE('',#257,#259,#122,.T.);
#312=EDGE_CURVE('',#261,#262,#220,.T.);
#313=EDGE_CURVE('',#262,#260,#221,.T.);
#314=EDGE_CURVE('',#259,#261,#222,.T.);
#315=EDGE_CURVE('',#263,#264,#223,.T.);
#316=EDGE_CURVE('',#264,#262,#123,.T.);
#317=EDGE_CURVE('',#261,#263,#124,.T.);
#318=EDGE_CURVE('',#265,#266,#224,.T.);
#319=EDGE_CURVE('',#266,#264,#225,.T.);
#320=EDGE_CURVE('',#263,#265,#226,.T.);
#321=EDGE_CURVE('',#265,#252,#125,.T.);
#322=EDGE_CURVE('',#251,#266,#126,.T.);
#323=EDGE_CURVE('',#235,#264,#127,.T.);
#324=EDGE_CURVE('',#262,#234,#128,.T.);
#325=EDGE_CURVE('',#266,#236,#129,.T.);
#326=EDGE_CURVE('',#245,#251,#130,.T.);
#327=EDGE_CURVE('',#267,#244,#131,.T.);
#328=EDGE_CURVE('',#268,#267,#132,.T.);
#329=EDGE_CURVE('',#268,#237,#133,.T.);
#330=EDGE_CURVE('',#254,#246,#134,.T.);
#331=EDGE_CURVE('',#269,#269,#227,.T.);
#332=EDGE_CURVE('',#270,#270,#228,.T.);
#333=EDGE_CURVE('',#271,#271,#229,.T.);
#334=EDGE_CURVE('',#272,#272,#230,.T.);
#335=EDGE_CURVE('',#258,#232,#135,.T.);
#336=EDGE_CURVE('',#231,#256,#136,.T.);
#337=EDGE_CURVE('',#233,#260,#137,.T.);
#338=EDGE_CURVE('',#273,#274,#138,.T.);
#339=EDGE_CURVE('',#275,#273,#139,.T.);
#340=EDGE_CURVE('',#276,#275,#140,.T.);
#341=EDGE_CURVE('',#274,#276,#141,.T.);
#342=EDGE_CURVE('',#275,#241,#142,.T.);
#343=EDGE_CURVE('',#276,#240,#143,.T.);
#344=EDGE_CURVE('',#273,#242,#144,.T.);
#345=EDGE_CURVE('',#277,#278,#145,.T.);
#346=EDGE_CURVE('',#268,#278,#146,.T.);
#347=EDGE_CURVE('',#277,#267,#147,.T.);
#348=EDGE_CURVE('',#278,#238,#148,.T.);
#349=EDGE_CURVE('',#250,#269,#149,.T.);
#350=EDGE_CURVE('',#249,#270,#150,.T.);
#351=EDGE_CURVE('',#248,#271,#151,.T.);
#352=EDGE_CURVE('',#247,#272,#152,.T.);
#353=EDGE_CURVE('',#277,#243,#153,.T.);
#354=EDGE_CURVE('',#274,#239,#154,.T.);
#355=ORIENTED_EDGE('',*,*,#279,.T.);
#356=ORIENTED_EDGE('',*,*,#280,.T.);
#357=ORIENTED_EDGE('',*,*,#281,.T.);
#358=ORIENTED_EDGE('',*,*,#282,.T.);
#359=ORIENTED_EDGE('',*,*,#283,.T.);
#360=ORIENTED_EDGE('',*,*,#284,.T.);
#361=ORIENTED_EDGE('',*,*,#285,.T.);
#362=ORIENTED_EDGE('',*,*,#286,.T.);
#363=ORIENTED_EDGE('',*,*,#287,.T.);
#364=ORIENTED_EDGE('',*,*,#288,.T.);
#365=ORIENTED_EDGE('',*,*,#289,.T.);
#366=ORIENTED_EDGE('',*,*,#290,.T.);
#367=ORIENTED_EDGE('',*,*,#291,.T.);
#368=ORIENTED_EDGE('',*,*,#292,.T.);
#369=ORIENTED_EDGE('',*,*,#293,.T.);
#370=ORIENTED_EDGE('',*,*,#294,.T.);
#371=ORIENTED_EDGE('',*,*,#295,.T.);
#372=ORIENTED_EDGE('',*,*,#296,.T.);
#373=ORIENTED_EDGE('',*,*,#297,.T.);
#374=ORIENTED_EDGE('',*,*,#298,.T.);
#375=ORIENTED_EDGE('',*,*,#299,.T.);
#376=ORIENTED_EDGE('',*,*,#300,.T.);
#377=ORIENTED_EDGE('',*,*,#301,.T.);
#378=ORIENTED_EDGE('',*,*,#302,.T.);
#379=ORIENTED_EDGE('',*,*,#303,.T.);
#380=ORIENTED_EDGE('',*,*,#304,.T.);
#381=ORIENTED_EDGE('',*,*,#301,.F.);
#382=ORIENTED_EDGE('',*,*,#305,.T.);
#383=ORIENTED_EDGE('',*,*,#306,.T.);
#384=ORIENTED_EDGE('',*,*,#307,.T.);
#385=ORIENTED_EDGE('',*,*,#303,.F.);
#386=ORIENTED_EDGE('',*,*,#308,.T.);
#387=ORIENTED_EDGE('',*,*,#309,.T.);
#388=ORIENTED_EDGE('',*,*,#310,.T.);
#389=ORIENTED_EDGE('',*,*,#306,.F.);
#390=ORIENTED_EDGE('',*,*,#311,.T.);
#391=ORIENTED_EDGE('',*,*,#312,.T.);
#392=ORIENTED_EDGE('',*,*,#313,.T.);
#393=ORIENTED_EDGE('',*,*,#309,.F.);
#394=ORIENTED_EDGE('',*,*,#314,.T.);
#395=ORIENTED_EDGE('',*,*,#315,.T.);
#396=ORIENTED_EDGE('',*,*,#316,.T.);
#397=ORIENTED_EDGE('',*,*,#312,.F.);
#398=ORIENTED_EDGE('',*,*,#317,.T.);
#399=ORIENTED_EDGE('',*,*,#318,.T.);
#400=ORIENTED_EDGE('',*,*,#319,.T.);
#401=ORIENTED_EDGE('',*,*,#315,.F.);
#402=ORIENTED_EDGE('',*,*,#320,.T.);
#403=ORIENTED_EDGE('',*,*,#318,.F.);
#404=ORIENTED_EDGE('',*,*,#321,.T.);
#405=ORIENTED_EDGE('',*,*,#299,.F.);
#406=ORIENTED_EDGE('',*,*,#322,.T.);
#407=ORIENTED_EDGE('',*,*,#316,.F.);
#408=ORIENTED_EDGE('',*,*,#323,.F.);
#409=ORIENTED_EDGE('',*,*,#282,.F.);
#410=ORIENTED_EDGE('',*,*,#324,.F.);
#411=ORIENTED_EDGE('',*,*,#319,.F.);
#412=ORIENTED_EDGE('',*,*,#325,.T.);
#413=ORIENTED_EDGE('',*,*,#283,.F.);
#414=ORIENTED_EDGE('',*,*,#323,.T.);
#415=ORIENTED_EDGE('',*,*,#322,.F.);
#416=ORIENTED_EDGE('',*,*,#326,.F.);
#417=ORIENTED_EDGE('',*,*,#292,.F.);
#418=ORIENTED_EDGE('',*,*,#327,.F.);
#419=ORIENTED_EDGE('',*,*,#328,.F.);
#420=ORIENTED_EDGE('',*,*,#329,.T.);
#421=ORIENTED_EDGE('',*,*,#284,.F.);
#422=ORIENTED_EDGE('',*,*,#325,.F.);
#423=ORIENTED_EDGE('',*,*,#302,.F.);
#424=ORIENTED_EDGE('',*,*,#330,.T.);
#425=ORIENTED_EDGE('',*,*,#293,.F.);
#426=ORIENTED_EDGE('',*,*,#326,.T.);
#427=ORIENTED_EDGE('',*,*,#300,.F.);
#428=ORIENTED_EDGE('',*,*,#321,.F.);
#429=ORIENTED_EDGE('',*,*,#320,.F.);
#430=ORIENTED_EDGE('',*,*,#317,.F.);
#431=ORIENTED_EDGE('',*,*,#314,.F.);
#432=ORIENTED_EDGE('',*,*,#311,.F.);
#433=ORIENTED_EDGE('',*,*,#308,.F.);
#434=ORIENTED_EDGE('',*,*,#305,.F.);
#435=ORIENTED_EDGE('',*,*,#331,.F.);
#436=ORIENTED_EDGE('',*,*,#332,.F.);
#437=ORIENTED_EDGE('',*,*,#333,.F.);
#438=ORIENTED_EDGE('',*,*,#334,.F.);
#439=ORIENTED_EDGE('',*,*,#307,.F.);
#440=ORIENTED_EDGE('',*,*,#335,.T.);
#441=ORIENTED_EDGE('',*,*,#279,.F.);
#442=ORIENTED_EDGE('',*,*,#336,.T.);
#443=ORIENTED_EDGE('',*,*,#310,.F.);
#444=ORIENTED_EDGE('',*,*,#337,.F.);
#445=ORIENTED_EDGE('',*,*,#280,.F.);
#446=ORIENTED_EDGE('',*,*,#335,.F.);
#447=ORIENTED_EDGE('',*,*,#313,.F.);
#448=ORIENTED_EDGE('',*,*,#324,.T.);
#449=ORIENTED_EDGE('',*,*,#281,.F.);
#450=ORIENTED_EDGE('',*,*,#337,.T.);
#451=ORIENTED_EDGE('',*,*,#338,.F.);
#452=ORIENTED_EDGE('',*,*,#339,.F.);
#453=ORIENTED_EDGE('',*,*,#340,.F.);
#454=ORIENTED_EDGE('',*,*,#341,.F.);
#455=ORIENTED_EDGE('',*,*,#340,.T.);
#456=ORIENTED_EDGE('',*,*,#342,.T.);
#457=ORIENTED_EDGE('',*,*,#288,.F.);
#458=ORIENTED_EDGE('',*,*,#343,.F.);
#459=ORIENTED_EDGE('',*,*,#339,.T.);
#460=ORIENTED_EDGE('',*,*,#344,.T.);
#461=ORIENTED_EDGE('',*,*,#289,.F.);
#462=ORIENTED_EDGE('',*,*,#342,.F.);
#463=ORIENTED_EDGE('',*,*,#345,.T.);
#464=ORIENTED_EDGE('',*,*,#346,.F.);
#465=ORIENTED_EDGE('',*,*,#328,.T.);
#466=ORIENTED_EDGE('',*,*,#347,.F.);
#467=ORIENTED_EDGE('',*,*,#346,.T.);
#468=ORIENTED_EDGE('',*,*,#348,.T.);
#469=ORIENTED_EDGE('',*,*,#285,.F.);
#470=ORIENTED_EDGE('',*,*,#329,.F.);
#471=ORIENTED_EDGE('',*,*,#298,.F.);
#472=ORIENTED_EDGE('',*,*,#349,.T.);
#473=ORIENTED_EDGE('',*,*,#331,.T.);
#474=ORIENTED_EDGE('',*,*,#349,.F.);
#475=ORIENTED_EDGE('',*,*,#297,.F.);
#476=ORIENTED_EDGE('',*,*,#350,.T.);
#477=ORIENTED_EDGE('',*,*,#332,.T.);
#478=ORIENTED_EDGE('',*,*,#350,.F.);
#479=ORIENTED_EDGE('',*,*,#296,.F.);
#480=ORIENTED_EDGE('',*,*,#351,.T.);
#481=ORIENTED_EDGE('',*,*,#333,.T.);
#482=ORIENTED_EDGE('',*,*,#351,.F.);
#483=ORIENTED_EDGE('',*,*,#295,.F.);
#484=ORIENTED_EDGE('',*,*,#352,.T.);
#485=ORIENTED_EDGE('',*,*,#334,.T.);
#486=ORIENTED_EDGE('',*,*,#352,.F.);
#487=ORIENTED_EDGE('',*,*,#304,.F.);
#488=ORIENTED_EDGE('',*,*,#336,.F.);
#489=ORIENTED_EDGE('',*,*,#294,.F.);
#490=ORIENTED_EDGE('',*,*,#330,.F.);
#491=ORIENTED_EDGE('',*,*,#347,.T.);
#492=ORIENTED_EDGE('',*,*,#327,.T.);
#493=ORIENTED_EDGE('',*,*,#291,.F.);
#494=ORIENTED_EDGE('',*,*,#353,.F.);
#495=ORIENTED_EDGE('',*,*,#338,.T.);
#496=ORIENTED_EDGE('',*,*,#354,.T.);
#497=ORIENTED_EDGE('',*,*,#286,.F.);
#498=ORIENTED_EDGE('',*,*,#348,.F.);
#499=ORIENTED_EDGE('',*,*,#345,.F.);
#500=ORIENTED_EDGE('',*,*,#353,.T.);
#501=ORIENTED_EDGE('',*,*,#290,.F.);
#502=ORIENTED_EDGE('',*,*,#344,.F.);
#503=ORIENTED_EDGE('',*,*,#341,.T.);
#504=ORIENTED_EDGE('',*,*,#343,.T.);
#505=ORIENTED_EDGE('',*,*,#287,.F.);
#506=ORIENTED_EDGE('',*,*,#354,.F.);
#507=PLANE('',#565);
#508=PLANE('',#598);
#509=PLANE('',#600);
#510=PLANE('',#602);
#511=PLANE('',#608);
#512=PLANE('',#610);
#513=PLANE('',#611);
#514=PLANE('',#612);
#515=PLANE('',#613);
#516=PLANE('',#614);
#517=PLANE('',#619);
#518=PLANE('',#620);
#519=PLANE('',#621);
#520=PLANE('',#622);
#521=ADVANCED_FACE('',(#39,#31,#32,#33,#34),#507,.T.);
#522=ADVANCED_FACE('',(#40),#27,.T.);
#523=ADVANCED_FACE('',(#41),#15,.T.);
#524=ADVANCED_FACE('',(#42),#28,.T.);
#525=ADVANCED_FACE('',(#43),#16,.T.);
#526=ADVANCED_FACE('',(#44),#29,.T.);
#527=ADVANCED_FACE('',(#45),#17,.T.);
#528=ADVANCED_FACE('',(#46),#30,.T.);
#529=ADVANCED_FACE('',(#47),#18,.T.);
#530=ADVANCED_FACE('',(#48),#508,.T.);
#531=ADVANCED_FACE('',(#49),#19,.T.);
#532=ADVANCED_FACE('',(#50),#509,.T.);
#533=ADVANCED_FACE('',(#51),#20,.T.);
#534=ADVANCED_FACE('',(#52,#35,#36,#37,#38),#510,.F.);
#535=ADVANCED_FACE('',(#53),#21,.T.);
#536=ADVANCED_FACE('',(#54),#511,.T.);
#537=ADVANCED_FACE('',(#55),#22,.T.);
#538=ADVANCED_FACE('',(#56),#512,.T.);
#539=ADVANCED_FACE('',(#57),#513,.T.);
#540=ADVANCED_FACE('',(#58),#514,.T.);
#541=ADVANCED_FACE('',(#59),#515,.T.);
#542=ADVANCED_FACE('',(#60),#516,.T.);
#543=ADVANCED_FACE('',(#61),#23,.F.);
#544=ADVANCED_FACE('',(#62),#24,.F.);
#545=ADVANCED_FACE('',(#63),#25,.F.);
#546=ADVANCED_FACE('',(#64),#26,.F.);
#547=ADVANCED_FACE('',(#65),#517,.T.);
#548=ADVANCED_FACE('',(#66),#518,.T.);
#549=ADVANCED_FACE('',(#67),#519,.T.);
#550=ADVANCED_FACE('',(#68),#520,.T.);
#551=CLOSED_SHELL('',(#521,#522,#523,#524,#525,#526,#527,#528,#529,#530,
#531,#532,#533,#534,#535,#536,#537,#538,#539,#540,#541,#542,#543,#544,#545,
#546,#547,#548,#549,#550));
#552=DERIVED_UNIT_ELEMENT(#554,1.);
#553=DERIVED_UNIT_ELEMENT(#949,-3.);
#554=(
MASS_UNIT()
NAMED_UNIT(*)
SI_UNIT(.KILO.,.GRAM.)
);
#555=DERIVED_UNIT((#552,#553));
#556=MEASURE_REPRESENTATION_ITEM('density measure',
POSITIVE_RATIO_MEASURE(7850.),#555);
#557=PROPERTY_DEFINITION_REPRESENTATION(#562,#559);
#558=PROPERTY_DEFINITION_REPRESENTATION(#563,#560);
#559=REPRESENTATION('material name',(#561),#946);
#560=REPRESENTATION('density',(#556),#946);
#561=DESCRIPTIVE_REPRESENTATION_ITEM('Steel','Steel');
#562=PROPERTY_DEFINITION('material property','material name',#956);
#563=PROPERTY_DEFINITION('material property','density of part',#956);
#564=AXIS2_PLACEMENT_3D('',#789,#623,#624);
#565=AXIS2_PLACEMENT_3D('',#790,#625,#626);
#566=AXIS2_PLACEMENT_3D('',#793,#627,#628);
#567=AXIS2_PLACEMENT_3D('',#797,#630,#631);
#568=AXIS2_PLACEMENT_3D('',#801,#633,#634);
#569=AXIS2_PLACEMENT_3D('',#821,#644,#645);
#570=AXIS2_PLACEMENT_3D('',#824,#647,#648);
#571=AXIS2_PLACEMENT_3D('',#826,#649,#650);
#572=AXIS2_PLACEMENT_3D('',#828,#651,#652);
#573=AXIS2_PLACEMENT_3D('',#830,#653,#654);
#574=AXIS2_PLACEMENT_3D('',#831,#655,#656);
#575=AXIS2_PLACEMENT_3D('',#834,#657,#658);
#576=AXIS2_PLACEMENT_3D('',#836,#659,#660);
#577=AXIS2_PLACEMENT_3D('',#838,#661,#662);
#578=AXIS2_PLACEMENT_3D('',#839,#663,#664);
#579=AXIS2_PLACEMENT_3D('',#840,#665,#666);
#580=AXIS2_PLACEMENT_3D('',#843,#667,#668);
#581=AXIS2_PLACEMENT_3D('',#846,#671,#672);
#582=AXIS2_PLACEMENT_3D('',#849,#673,#674);
#583=AXIS2_PLACEMENT_3D('',#850,#675,#676);
#584=AXIS2_PLACEMENT_3D('',#851,#677,#678);
#585=AXIS2_PLACEMENT_3D('',#852,#679,#680);
#586=AXIS2_PLACEMENT_3D('',#855,#681,#682);
#587=AXIS2_PLACEMENT_3D('',#858,#685,#686);
#588=AXIS2_PLACEMENT_3D('',#861,#687,#688);
#589=AXIS2_PLACEMENT_3D('',#862,#689,#690);
#590=AXIS2_PLACEMENT_3D('',#863,#691,#692);
#591=AXIS2_PLACEMENT_3D('',#864,#693,#694);
#592=AXIS2_PLACEMENT_3D('',#867,#695,#696);
#593=AXIS2_PLACEMENT_3D('',#870,#699,#700);
#594=AXIS2_PLACEMENT_3D('',#873,#701,#702);
#595=AXIS2_PLACEMENT_3D('',#874,#703,#704);
#596=AXIS2_PLACEMENT_3D('',#875,#705,#706);
#597=AXIS2_PLACEMENT_3D('',#876,#707,#708);
#598=AXIS2_PLACEMENT_3D('',#879,#711,#712);
#599=AXIS2_PLACEMENT_3D('',#882,#715,#716);
#600=AXIS2_PLACEMENT_3D('',#884,#718,#719);
#601=AXIS2_PLACEMENT_3D('',#891,#724,#725);
#602=AXIS2_PLACEMENT_3D('',#893,#727,#728);
#603=AXIS2_PLACEMENT_3D('',#895,#729,#730);
#604=AXIS2_PLACEMENT_3D('',#897,#731,#732);
#605=AXIS2_PLACEMENT_3D('',#899,#733,#734);
#606=AXIS2_PLACEMENT_3D('',#901,#735,#736);
#607=AXIS2_PLACEMENT_3D('',#902,#737,#738);
#608=AXIS2_PLACEMENT_3D('',#905,#741,#742);
#609=AXIS2_PLACEMENT_3D('',#907,#744,#745);
#610=AXIS2_PLACEMENT_3D('',#908,#746,#747);
#611=AXIS2_PLACEMENT_3D('',#917,#752,#753);
#612=AXIS2_PLACEMENT_3D('',#920,#756,#757);
#613=AXIS2_PLACEMENT_3D('',#922,#759,#760);
#614=AXIS2_PLACEMENT_3D('',#928,#764,#765);
#615=AXIS2_PLACEMENT_3D('',#930,#767,#768);
#616=AXIS2_PLACEMENT_3D('',#932,#770,#771);
#617=AXIS2_PLACEMENT_3D('',#934,#773,#774);
#618=AXIS2_PLACEMENT_3D('',#936,#776,#777);
#619=AXIS2_PLACEMENT_3D('',#938,#779,#780);
#620=AXIS2_PLACEMENT_3D('',#939,#781,#782);
#621=AXIS2_PLACEMENT_3D('',#941,#784,#785);
#622=AXIS2_PLACEMENT_3D('',#943,#787,#788);
#623=DIRECTION('axis',(0.,0.,1.));
#624=DIRECTION('refdir',(1.,0.,0.));
#625=DIRECTION('center_axis',(0.,0.,1.));
#626=DIRECTION('ref_axis',(1.,0.,0.));
#627=DIRECTION('center_axis',(0.,0.,1.));
#628=DIRECTION('ref_axis',(-0.707106781186547,-0.707106781186547,0.));
#629=DIRECTION('',(1.,0.,0.));
#630=DIRECTION('center_axis',(0.,0.,1.));
#631=DIRECTION('ref_axis',(0.707106781186547,-0.707106781186547,0.));
#632=DIRECTION('',(4.36622957280565E-17,1.,0.));
#633=DIRECTION('center_axis',(0.,0.,1.));
#634=DIRECTION('ref_axis',(0.707106781186547,0.707106781186547,0.));
#635=DIRECTION('',(-1.,0.,0.));
#636=DIRECTION('',(0.,-1.,0.));
#637=DIRECTION('',(1.,0.,0.));
#638=DIRECTION('',(0.,-1.,0.));
#639=DIRECTION('',(-1.,0.,0.));
#640=DIRECTION('',(0.,1.,0.));
#641=DIRECTION('',(1.,0.,0.));
#642=DIRECTION('',(0.,1.,0.));
#643=DIRECTION('',(-1.,0.,0.));
#644=DIRECTION('center_axis',(0.,0.,1.));
#645=DIRECTION('ref_axis',(-0.707106781186547,0.707106781186547,0.));
#646=DIRECTION('',(0.,-1.,0.));
#647=DIRECTION('center_axis',(0.,0.,-1.));
#648=DIRECTION('ref_axis',(1.,0.,0.));
#649=DIRECTION('center_axis',(0.,0.,-1.));
#650=DIRECTION('ref_axis',(1.,0.,0.));
#651=DIRECTION('center_axis',(0.,0.,-1.));
#652=DIRECTION('ref_axis',(1.,0.,0.));
#653=DIRECTION('center_axis',(0.,0.,-1.));
#654=DIRECTION('ref_axis',(1.,0.,0.));
#655=DIRECTION('center_axis',(0.,0.,1.));
#656=DIRECTION('ref_axis',(1.,0.,0.));
#657=DIRECTION('center_axis',(-1.,0.,0.));
#658=DIRECTION('ref_axis',(0.,1.,0.));
#659=DIRECTION('center_axis',(0.,0.,1.));
#660=DIRECTION('ref_axis',(-0.707106781186547,0.707106781186547,0.));
#661=DIRECTION('center_axis',(0.,1.,0.));
#662=DIRECTION('ref_axis',(0.,0.,-1.));
#663=DIRECTION('center_axis',(0.,0.,-1.));
#664=DIRECTION('ref_axis',(-0.707106781186547,0.707106781186547,0.));
#665=DIRECTION('center_axis',(0.,1.,0.));
#666=DIRECTION('ref_axis',(-0.707106781186546,0.,-0.707106781186549));
#667=DIRECTION('center_axis',(0.,1.,0.));
#668=DIRECTION('ref_axis',(0.,0.,-1.));
#669=DIRECTION('',(0.,1.,0.));
#670=DIRECTION('',(0.,-1.,0.));
#671=DIRECTION('center_axis',(0.,0.,1.));
#672=DIRECTION('ref_axis',(1.,0.,0.));
#673=DIRECTION('center_axis',(-1.,0.,0.));
#674=DIRECTION('ref_axis',(0.,0.,-1.));
#675=DIRECTION('center_axis',(0.,0.,-1.));
#676=DIRECTION('ref_axis',(-0.707106781186547,-0.707106781186547,0.));
#677=DIRECTION('center_axis',(0.,0.,1.));
#678=DIRECTION('ref_axis',(-0.707106781186547,-0.707106781186547,0.));
#679=DIRECTION('center_axis',(-1.,0.,0.));
#680=DIRECTION('ref_axis',(0.,-0.707106781186546,-0.707106781186549));
#681=DIRECTION('center_axis',(-1.,0.,0.));
#682=DIRECTION('ref_axis',(0.,0.,-1.));
#683=DIRECTION('',(-1.,0.,0.));
#684=DIRECTION('',(1.,0.,0.));
#685=DIRECTION('center_axis',(0.,0.,1.));
#686=DIRECTION('ref_axis',(1.,0.,0.));
#687=DIRECTION('center_axis',(0.,-1.,0.));
#688=DIRECTION('ref_axis',(0.,0.,-1.));
#689=DIRECTION('center_axis',(0.,0.,-1.));
#690=DIRECTION('ref_axis',(0.707106781186547,-0.707106781186547,0.));
#691=DIRECTION('center_axis',(0.,0.,1.));
#692=DIRECTION('ref_axis',(0.707106781186547,-0.707106781186547,0.));
#693=DIRECTION('center_axis',(-4.36622957280565E-17,-1.,0.));
#694=DIRECTION('ref_axis',(0.707106781186546,0.,-0.707106781186549));
#695=DIRECTION('center_axis',(0.,-1.,0.));
#696=DIRECTION('ref_axis',(0.,0.,-1.));
#697=DIRECTION('',(-4.36622957280565E-17,-1.,0.));
#698=DIRECTION('',(4.36622957280565E-17,1.,0.));
#699=DIRECTION('center_axis',(0.,0.,1.));
#700=DIRECTION('ref_axis',(1.,0.,0.));
#701=DIRECTION('center_axis',(1.,4.44089209850064E-15,0.));
#702=DIRECTION('ref_axis',(0.,0.,-1.));
#703=DIRECTION('center_axis',(0.,0.,-1.));
#704=DIRECTION('ref_axis',(0.707106781186547,0.707106781186547,0.));
#705=DIRECTION('center_axis',(0.,0.,1.));
#706=DIRECTION('ref_axis',(0.707106781186547,0.707106781186547,0.));
#707=DIRECTION('center_axis',(1.,0.,0.));
#708=DIRECTION('ref_axis',(0.,0.707106781186546,-0.707106781186549));
#709=DIRECTION('',(-1.,0.,0.));
#710=DIRECTION('',(1.,0.,0.));
#711=DIRECTION('center_axis',(1.,-4.36622957280565E-17,0.));
#712=DIRECTION('ref_axis',(4.36622957280565E-17,1.,0.));
#713=DIRECTION('',(0.,0.,-1.));
#714=DIRECTION('',(0.,0.,1.));
#715=DIRECTION('center_axis',(0.,0.,1.));
#716=DIRECTION('ref_axis',(0.707106781186547,0.707106781186547,0.));
#717=DIRECTION('',(0.,0.,1.));
#718=DIRECTION('center_axis',(0.,1.,0.));
#719=DIRECTION('ref_axis',(-1.,0.,0.));
#720=DIRECTION('',(0.,0.,-1.));
#721=DIRECTION('',(0.,0.,1.));
#722=DIRECTION('',(-1.,0.,0.));
#723=DIRECTION('',(0.,0.,1.));
#724=DIRECTION('center_axis',(0.,0.,1.));
#725=DIRECTION('ref_axis',(-0.707106781186547,0.707106781186547,0.));
#726=DIRECTION('',(0.,0.,1.));
#727=DIRECTION('center_axis',(0.,0.,1.));
#728=DIRECTION('ref_axis',(1.,0.,0.));
#729=DIRECTION('center_axis',(0.,0.,-1.));
#730=DIRECTION('ref_axis',(1.,0.,0.));
#731=DIRECTION('center_axis',(0.,0.,-1.));
#732=DIRECTION('ref_axis',(1.,0.,0.));
#733=DIRECTION('center_axis',(0.,0.,-1.));
#734=DIRECTION('ref_axis',(1.,0.,0.));
#735=DIRECTION('center_axis',(0.,0.,-1.));
#736=DIRECTION('ref_axis',(1.,0.,0.));
#737=DIRECTION('center_axis',(0.,0.,1.));
#738=DIRECTION('ref_axis',(-0.707106781186547,-0.707106781186547,0.));
#739=DIRECTION('',(0.,0.,1.));
#740=DIRECTION('',(0.,0.,-1.));
#741=DIRECTION('center_axis',(0.,-1.,0.));
#742=DIRECTION('ref_axis',(1.,0.,0.));
#743=DIRECTION('',(0.,0.,-1.));
#744=DIRECTION('center_axis',(0.,0.,1.));
#745=DIRECTION('ref_axis',(0.707106781186547,-0.707106781186547,0.));
#746=DIRECTION('center_axis',(0.,0.,1.));
#747=DIRECTION('ref_axis',(1.,0.,0.));
#748=DIRECTION('',(1.,0.,0.));
#749=DIRECTION('',(0.,1.,0.));
#750=DIRECTION('',(-1.,0.,0.));
#751=DIRECTION('',(0.,-1.,0.));
#752=DIRECTION('center_axis',(0.,1.,0.));
#753=DIRECTION('ref_axis',(-1.,0.,0.));
#754=DIRECTION('',(0.,0.,1.));
#755=DIRECTION('',(0.,0.,1.));
#756=DIRECTION('center_axis',(1.,0.,0.));
#757=DIRECTION('ref_axis',(0.,1.,0.));
#758=DIRECTION('',(0.,0.,1.));
#759=DIRECTION('center_axis',(0.,0.,1.));
#760=DIRECTION('ref_axis',(1.,0.,0.));
#761=DIRECTION('',(1.,0.,0.));
#762=DIRECTION('',(0.,-1.,0.));
#763=DIRECTION('',(0.,1.,0.));
#764=DIRECTION('center_axis',(-1.,0.,0.));
#765=DIRECTION('ref_axis',(0.,-1.,0.));
#766=DIRECTION('',(0.,0.,1.));
#767=DIRECTION('center_axis',(0.,0.,1.));
#768=DIRECTION('ref_axis',(1.,0.,0.));
#769=DIRECTION('',(0.,0.,-1.));
#770=DIRECTION('center_axis',(0.,0.,1.));
#771=DIRECTION('ref_axis',(1.,0.,0.));
#772=DIRECTION('',(0.,0.,-1.));
#773=DIRECTION('center_axis',(0.,0.,1.));
#774=DIRECTION('ref_axis',(1.,0.,0.));
#775=DIRECTION('',(0.,0.,-1.));
#776=DIRECTION('center_axis',(0.,0.,1.));
#777=DIRECTION('ref_axis',(1.,0.,0.));
#778=DIRECTION('',(0.,0.,-1.));
#779=DIRECTION('center_axis',(-1.,0.,0.));
#780=DIRECTION('ref_axis',(0.,-1.,0.));
#781=DIRECTION('center_axis',(1.,0.,0.));
#782=DIRECTION('ref_axis',(0.,1.,0.));
#783=DIRECTION('',(0.,0.,1.));
#784=DIRECTION('center_axis',(0.,-1.,0.));
#785=DIRECTION('ref_axis',(1.,0.,0.));
#786=DIRECTION('',(0.,0.,1.));
#787=DIRECTION('center_axis',(-1.,0.,0.));
#788=DIRECTION('ref_axis',(0.,-1.,0.));
#789=CARTESIAN_POINT('',(0.,0.,0.));
#790=CARTESIAN_POINT('Origin',(-8.77579219237749,1.56673526545676,-41.39));
#791=CARTESIAN_POINT('',(-51.0532921923775,-44.2882647345432,-41.39));
#792=CARTESIAN_POINT('',(-46.0532921923775,-49.2882647345432,-41.39));
#793=CARTESIAN_POINT('Origin',(-46.0532921923775,-44.2882647345432,-41.39));
#794=CARTESIAN_POINT('',(28.5017078076225,-49.2882647345432,-41.39));
#795=CARTESIAN_POINT('',(33.5017078076225,-49.2882647345432,-41.39));
#796=CARTESIAN_POINT('',(33.5017078076225,-44.2882647345432,-41.39));
#797=CARTESIAN_POINT('Origin',(28.5017078076225,-44.2882647345432,-41.39));
#798=CARTESIAN_POINT('',(33.5017078076225,47.4217352654568,-41.39));
#799=CARTESIAN_POINT('',(33.5017078076225,52.4217352654568,-41.39));
#800=CARTESIAN_POINT('',(28.5017078076225,52.4217352654568,-41.39));
#801=CARTESIAN_POINT('Origin',(28.5017078076225,47.4217352654568,-41.39));
#802=CARTESIAN_POINT('',(20.8217078076225,52.4217352654568,-41.39));
#803=CARTESIAN_POINT('',(-51.0532921923775,52.4217352654568,-41.39));
#804=CARTESIAN_POINT('',(20.8217078076225,42.4217352654568,-41.39));
#805=CARTESIAN_POINT('',(20.8217078076225,52.4217352654568,-41.39));
#806=CARTESIAN_POINT('',(23.5017078076225,42.4217352654568,-41.39));
#807=CARTESIAN_POINT('',(-41.0532921923775,42.4217352654568,-41.39));
#808=CARTESIAN_POINT('',(23.5017078076225,-39.2882647345432,-41.39));
#809=CARTESIAN_POINT('',(23.5017078076225,42.4217352654568,-41.39));
#810=CARTESIAN_POINT('',(-41.0532921923775,-39.2882647345432,-41.39));
#811=CARTESIAN_POINT('',(23.5017078076225,-39.2882647345432,-41.39));
#812=CARTESIAN_POINT('',(-41.0532921923775,42.4217352654568,-41.39));
#813=CARTESIAN_POINT('',(-41.0532921923775,-39.2882647345432,-41.39));
#814=CARTESIAN_POINT('',(2.32170780762251,42.4217352654568,-41.39));
#815=CARTESIAN_POINT('',(-41.0532921923775,42.4217352654568,-41.39));
#816=CARTESIAN_POINT('',(2.32170780762251,52.4217352654568,-41.39));
#817=CARTESIAN_POINT('',(2.32170780762251,42.4217352654568,-41.39));
#818=CARTESIAN_POINT('',(-46.0532921923775,52.4217352654568,-41.39));
#819=CARTESIAN_POINT('',(-51.0532921923775,52.4217352654568,-41.39));
#820=CARTESIAN_POINT('',(-51.0532921923775,47.4217352654568,-41.39));
#821=CARTESIAN_POINT('Origin',(-46.0532921923775,47.4217352654568,-41.39));
#822=CARTESIAN_POINT('',(-51.0532921923775,-49.2882647345432,-41.39));
#823=CARTESIAN_POINT('',(-49.0532921923775,47.4217352654568,-41.39));
#824=CARTESIAN_POINT('Origin',(-46.0532921923775,47.4217352654568,-41.39));
#825=CARTESIAN_POINT('',(25.5017078076225,47.4217352654568,-41.39));
#826=CARTESIAN_POINT('Origin',(28.5017078076225,47.4217352654568,-41.39));
#827=CARTESIAN_POINT('',(25.5017078076225,-44.2882647345432,-41.39));
#828=CARTESIAN_POINT('Origin',(28.5017078076225,-44.2882647345432,-41.39));
#829=CARTESIAN_POINT('',(-49.0532921923775,-44.2882647345432,-41.39));
#830=CARTESIAN_POINT('Origin',(-46.0532921923775,-44.2882647345432,-41.39));
#831=CARTESIAN_POINT('Origin',(-46.0532921923775,47.4217352654568,-49.));
#832=CARTESIAN_POINT('',(-46.0532921923775,52.4217352654568,-49.));
#833=CARTESIAN_POINT('',(-46.0532921923775,51.4217352654568,-50.));
#834=CARTESIAN_POINT('Origin',(-46.0532921923775,51.4217352654568,-49.));
#835=CARTESIAN_POINT('',(-50.0532921923775,47.4217352654568,-50.));
#836=CARTESIAN_POINT('Origin',(-46.0532921923775,47.4217352654568,-50.));
#837=CARTESIAN_POINT('',(-51.0532921923775,47.4217352654568,-49.));
#838=CARTESIAN_POINT('Origin',(-50.0532921923775,47.4217352654568,-49.));
#839=CARTESIAN_POINT('Origin',(-46.0532921923775,47.4217352654568,-49.));
#840=CARTESIAN_POINT('Origin',(-50.0532921923775,26.9942352654568,-49.));
#841=CARTESIAN_POINT('',(-50.0532921923775,-44.2882647345432,-50.));
#842=CARTESIAN_POINT('',(-51.0532921923775,-44.2882647345432,-49.));
#843=CARTESIAN_POINT('Origin',(-50.0532921923775,-44.2882647345432,-49.));
#844=CARTESIAN_POINT('',(-51.0532921923775,26.9942352654568,-49.));
#845=CARTESIAN_POINT('',(-50.0532921923775,26.9942352654568,-50.));
#846=CARTESIAN_POINT('Origin',(-46.0532921923775,-44.2882647345432,-49.));
#847=CARTESIAN_POINT('',(-46.0532921923775,-48.2882647345432,-50.));
#848=CARTESIAN_POINT('',(-46.0532921923775,-49.2882647345432,-49.));
#849=CARTESIAN_POINT('Origin',(-46.0532921923775,-48.2882647345432,-49.));
#850=CARTESIAN_POINT('Origin',(-46.0532921923775,-44.2882647345432,-49.));
#851=CARTESIAN_POINT('Origin',(-46.0532921923775,-44.2882647345432,-50.));
#852=CARTESIAN_POINT('Origin',(-29.9145421923775,-48.2882647345432,-49.));
#853=CARTESIAN_POINT('',(28.5017078076225,-48.2882647345432,-50.));
#854=CARTESIAN_POINT('',(28.5017078076225,-49.2882647345432,-49.));
#855=CARTESIAN_POINT('Origin',(28.5017078076225,-48.2882647345432,-49.));
#856=CARTESIAN_POINT('',(-29.9145421923775,-49.2882647345432,-49.));
#857=CARTESIAN_POINT('',(-29.9145421923775,-48.2882647345432,-50.));
#858=CARTESIAN_POINT('Origin',(28.5017078076225,-44.2882647345432,-49.));
#859=CARTESIAN_POINT('',(32.5017078076225,-44.2882647345432,-50.));
#860=CARTESIAN_POINT('',(33.5017078076225,-44.2882647345432,-49.));
#861=CARTESIAN_POINT('Origin',(32.5017078076225,-44.2882647345432,-49.));
#862=CARTESIAN_POINT('Origin',(28.5017078076225,-44.2882647345432,-49.));
#863=CARTESIAN_POINT('Origin',(28.5017078076225,-44.2882647345432,-50.));
#864=CARTESIAN_POINT('Origin',(32.5017078076225,-23.8607647345432,-49.));
#865=CARTESIAN_POINT('',(32.5017078076225,47.4217352654568,-50.));
#866=CARTESIAN_POINT('',(33.5017078076225,47.4217352654568,-49.));
#867=CARTESIAN_POINT('Origin',(32.5017078076225,47.4217352654568,-49.));
#868=CARTESIAN_POINT('',(33.5017078076225,-23.8607647345432,-49.));
#869=CARTESIAN_POINT('',(32.5017078076225,-23.8607647345432,-50.));
#870=CARTESIAN_POINT('Origin',(28.5017078076225,47.4217352654568,-49.));
#871=CARTESIAN_POINT('',(28.5017078076225,51.4217352654568,-50.));
#872=CARTESIAN_POINT('',(28.5017078076225,52.4217352654568,-49.));
#873=CARTESIAN_POINT('Origin',(28.5017078076225,51.4217352654568,-49.));
#874=CARTESIAN_POINT('Origin',(28.5017078076225,47.4217352654568,-49.));
#875=CARTESIAN_POINT('Origin',(28.5017078076225,47.4217352654568,-50.));
#876=CARTESIAN_POINT('Origin',(-3.22704219237749,51.4217352654568,-49.));
#877=CARTESIAN_POINT('',(-3.22704219237749,51.4217352654568,-50.));
#878=CARTESIAN_POINT('',(-3.22704219237749,52.4217352654568,-49.));
#879=CARTESIAN_POINT('Origin',(33.5017078076225,-49.2882647345432,-50.));
#880=CARTESIAN_POINT('',(33.5017078076225,47.4217352654568,-50.));
#881=CARTESIAN_POINT('',(33.5017078076225,-44.2882647345432,-50.));
#882=CARTESIAN_POINT('Origin',(28.5017078076225,47.4217352654568,-50.));
#883=CARTESIAN_POINT('',(28.5017078076225,52.4217352654568,-50.));
#884=CARTESIAN_POINT('Origin',(2.32170780762251,52.4217352654568,-50.));
#885=CARTESIAN_POINT('',(-46.0532921923775,52.4217352654568,-50.));
#886=CARTESIAN_POINT('',(2.32170780762251,52.4217352654568,-44.5));
#887=CARTESIAN_POINT('',(2.32170780762251,52.4217352654568,-50.));
#888=CARTESIAN_POINT('',(20.8217078076225,52.4217352654568,-44.5));
#889=CARTESIAN_POINT('',(2.32170780762251,52.4217352654568,-44.5));
#890=CARTESIAN_POINT('',(20.8217078076225,52.4217352654568,-50.));
#891=CARTESIAN_POINT('Origin',(-46.0532921923775,47.4217352654568,-50.));
#892=CARTESIAN_POINT('',(-51.0532921923775,47.4217352654568,-50.));
#893=CARTESIAN_POINT('Origin',(-8.77579219237749,1.56673526545676,-50.));
#894=CARTESIAN_POINT('',(-49.0532921923775,-44.2882647345432,-50.));
#895=CARTESIAN_POINT('Origin',(-46.0532921923775,-44.2882647345432,-50.));
#896=CARTESIAN_POINT('',(25.5017078076225,-44.2882647345432,-50.));
#897=CARTESIAN_POINT('Origin',(28.5017078076225,-44.2882647345432,-50.));
#898=CARTESIAN_POINT('',(25.5017078076225,47.4217352654568,-50.));
#899=CARTESIAN_POINT('Origin',(28.5017078076225,47.4217352654568,-50.));
#900=CARTESIAN_POINT('',(-49.0532921923775,47.4217352654568,-50.));
#901=CARTESIAN_POINT('Origin',(-46.0532921923775,47.4217352654568,-50.));
#902=CARTESIAN_POINT('Origin',(-46.0532921923775,-44.2882647345432,-50.));
#903=CARTESIAN_POINT('',(-46.0532921923775,-49.2882647345432,-50.));
#904=CARTESIAN_POINT('',(-51.0532921923775,-44.2882647345432,-50.));
#905=CARTESIAN_POINT('Origin',(-51.0532921923775,-49.2882647345432,-50.));
#906=CARTESIAN_POINT('',(28.5017078076225,-49.2882647345432,-50.));
#907=CARTESIAN_POINT('Origin',(28.5017078076225,-44.2882647345432,-50.));
#908=CARTESIAN_POINT('Origin',(-8.77579219237749,1.56673526545676,-47.1));
#909=CARTESIAN_POINT('',(-41.0532921923775,42.4217352654568,-47.1));
#910=CARTESIAN_POINT('',(23.5017078076225,42.4217352654568,-47.1));
#911=CARTESIAN_POINT('',(-24.9145421923775,42.4217352654568,-47.1));
#912=CARTESIAN_POINT('',(-41.0532921923775,-39.2882647345432,-47.1));
#913=CARTESIAN_POINT('',(-41.0532921923775,-18.8607647345432,-47.1));
#914=CARTESIAN_POINT('',(23.5017078076225,-39.2882647345432,-47.1));
#915=CARTESIAN_POINT('',(7.36295780762251,-39.2882647345432,-47.1));
#916=CARTESIAN_POINT('',(23.5017078076225,21.9942352654568,-47.1));
#917=CARTESIAN_POINT('Origin',(23.5017078076225,-39.2882647345432,-50.));
#918=CARTESIAN_POINT('',(-41.0532921923775,-39.2882647345432,-50.));
#919=CARTESIAN_POINT('',(23.5017078076225,-39.2882647345432,-50.));
#920=CARTESIAN_POINT('Origin',(-41.0532921923775,-39.2882647345432,-50.));
#921=CARTESIAN_POINT('',(-41.0532921923775,42.4217352654568,-50.));
#922=CARTESIAN_POINT('Origin',(11.5717078076225,47.4217352654568,-44.5));
#923=CARTESIAN_POINT('',(2.32170780762251,42.4217352654568,-44.5));
#924=CARTESIAN_POINT('',(20.8217078076225,42.4217352654568,-44.5));
#925=CARTESIAN_POINT('',(20.8217078076225,42.4217352654568,-44.5));
#926=CARTESIAN_POINT('',(20.8217078076225,49.9217352654568,-44.5));
#927=CARTESIAN_POINT('',(2.32170780762251,44.9217352654568,-44.5));
#928=CARTESIAN_POINT('Origin',(20.8217078076225,52.4217352654568,-50.));
#929=CARTESIAN_POINT('',(20.8217078076225,42.4217352654568,-50.));
#930=CARTESIAN_POINT('Origin',(-46.0532921923775,-44.2882647345432,-50.));
#931=CARTESIAN_POINT('',(-49.0532921923775,-44.2882647345432,-50.));
#932=CARTESIAN_POINT('Origin',(28.5017078076225,-44.2882647345432,-50.));
#933=CARTESIAN_POINT('',(25.5017078076225,-44.2882647345432,-50.));
#934=CARTESIAN_POINT('Origin',(28.5017078076225,47.4217352654568,-50.));
#935=CARTESIAN_POINT('',(25.5017078076225,47.4217352654568,-50.));
#936=CARTESIAN_POINT('Origin',(-46.0532921923775,47.4217352654568,-50.));
#937=CARTESIAN_POINT('',(-49.0532921923775,47.4217352654568,-50.));
#938=CARTESIAN_POINT('Origin',(-51.0532921923775,52.4217352654568,-50.));
#939=CARTESIAN_POINT('Origin',(2.32170780762251,42.4217352654568,-50.));
#940=CARTESIAN_POINT('',(2.32170780762251,42.4217352654568,-50.));
#941=CARTESIAN_POINT('Origin',(-41.0532921923775,42.4217352654568,-50.));
#942=CARTESIAN_POINT('',(23.5017078076225,42.4217352654568,-50.));
#943=CARTESIAN_POINT('Origin',(23.5017078076225,42.4217352654568,-50.));
#944=UNCERTAINTY_MEASURE_WITH_UNIT(LENGTH_MEASURE(0.01),#948,
'DISTANCE_ACCURACY_VALUE',
'Maximum model space distance between geometric entities at asserted c
onnectivities');
#945=UNCERTAINTY_MEASURE_WITH_UNIT(LENGTH_MEASURE(0.01),#948,
'DISTANCE_ACCURACY_VALUE',
'Maximum model space distance between geometric entities at asserted c
onnectivities');
#946=(
GEOMETRIC_REPRESENTATION_CONTEXT(3)
GLOBAL_UNCERTAINTY_ASSIGNED_CONTEXT((#944))
GLOBAL_UNIT_ASSIGNED_CONTEXT((#948,#950,#951))
REPRESENTATION_CONTEXT('','3D')
);
#947=(
GEOMETRIC_REPRESENTATION_CONTEXT(3)
GLOBAL_UNCERTAINTY_ASSIGNED_CONTEXT((#945))
GLOBAL_UNIT_ASSIGNED_CONTEXT((#948,#950,#951))
REPRESENTATION_CONTEXT('','3D')
);
#948=(
LENGTH_UNIT()
NAMED_UNIT(*)
SI_UNIT(.MILLI.,.METRE.)
);
#949=(
LENGTH_UNIT()
NAMED_UNIT(*)
SI_UNIT($,.METRE.)
);
#950=(
NAMED_UNIT(*)
PLANE_ANGLE_UNIT()
SI_UNIT($,.RADIAN.)
);
#951=(
NAMED_UNIT(*)
SI_UNIT($,.STERADIAN.)
SOLID_ANGLE_UNIT()
);
#952=SHAPE_DEFINITION_REPRESENTATION(#953,#954);
#953=PRODUCT_DEFINITION_SHAPE('',$,#956);
#954=SHAPE_REPRESENTATION('',(#564),#946);
#955=PRODUCT_DEFINITION_CONTEXT('part definition',#960,'design');
#956=PRODUCT_DEFINITION('FusionComponent','FusionComponent',#957,#955);
#957=PRODUCT_DEFINITION_FORMATION('',$,#962);
#958=PRODUCT_RELATED_PRODUCT_CATEGORY('FusionComponent',
'FusionComponent',(#962));
#959=APPLICATION_PROTOCOL_DEFINITION('international standard',
'automotive_design',2009,#960);
#960=APPLICATION_CONTEXT(
'Core Data for Automotive Mechanical Design Process');
#961=PRODUCT_CONTEXT('part definition',#960,'mechanical');
#962=PRODUCT('FusionComponent','FusionComponent',$,(#961));
#963=PRESENTATION_STYLE_ASSIGNMENT((#964));
#964=SURFACE_STYLE_USAGE(.BOTH.,#965);
#965=SURFACE_SIDE_STYLE('',(#966));
#966=SURFACE_STYLE_FILL_AREA(#967);
#967=FILL_AREA_STYLE('Steel - Satin',(#968));
#968=FILL_AREA_STYLE_COLOUR('Steel - Satin',#969);
#969=COLOUR_RGB('Steel - Satin',0.627450980392157,0.627450980392157,0.627450980392157);
ENDSEC;
END-ISO-10303-21;
